<mxfile host="app.diagrams.net" modified="2024-02-06T15:44:35.494Z" agent="Mozilla/5.0 (Windows NT 10.0; Win64; x64) AppleWebKit/537.36 (KHTML, like Gecko) Chrome/121.0.0.0 Safari/537.36 Edg/121.0.0.0" etag="PCJrZU1-pfV_P8yh2fx1" version="23.1.1" type="device">
  <diagram name="Página-1" id="zpLR7AWrlx_UqKVgdsEW">
    <mxGraphModel dx="2213" dy="1954" grid="1" gridSize="10" guides="1" tooltips="1" connect="1" arrows="1" fold="1" page="1" pageScale="1" pageWidth="827" pageHeight="1169" math="0" shadow="0">
      <root>
        <mxCell id="0" />
        <mxCell id="1" parent="0" />
        <mxCell id="v1hB-e7Ggh9aUadNg1hg-14" value="" style="edgeStyle=orthogonalEdgeStyle;rounded=0;orthogonalLoop=1;jettySize=auto;html=1;" edge="1" parent="1" source="v1hB-e7Ggh9aUadNg1hg-1" target="v1hB-e7Ggh9aUadNg1hg-13">
          <mxGeometry relative="1" as="geometry" />
        </mxCell>
        <mxCell id="v1hB-e7Ggh9aUadNg1hg-1" value="INICIO" style="ellipse;whiteSpace=wrap;html=1;" vertex="1" parent="1">
          <mxGeometry x="360" y="-110" width="120" height="80" as="geometry" />
        </mxCell>
        <mxCell id="v1hB-e7Ggh9aUadNg1hg-2" value="&lt;font color=&quot;#ffffff&quot;&gt;FIN&lt;/font&gt;" style="ellipse;whiteSpace=wrap;html=1;fillColor=#000000;" vertex="1" parent="1">
          <mxGeometry x="430" y="950" width="120" height="80" as="geometry" />
        </mxCell>
        <mxCell id="v1hB-e7Ggh9aUadNg1hg-31" value="" style="edgeStyle=orthogonalEdgeStyle;rounded=0;orthogonalLoop=1;jettySize=auto;html=1;" edge="1" parent="1" source="v1hB-e7Ggh9aUadNg1hg-3" target="v1hB-e7Ggh9aUadNg1hg-30">
          <mxGeometry relative="1" as="geometry" />
        </mxCell>
        <mxCell id="v1hB-e7Ggh9aUadNg1hg-3" value="SUMAR AL SALDO CANTIDAD INGRESADA" style="rounded=0;whiteSpace=wrap;html=1;" vertex="1" parent="1">
          <mxGeometry x="354" y="430" width="120" height="60" as="geometry" />
        </mxCell>
        <mxCell id="v1hB-e7Ggh9aUadNg1hg-6" value="" style="edgeStyle=orthogonalEdgeStyle;rounded=0;orthogonalLoop=1;jettySize=auto;html=1;" edge="1" parent="1" target="v1hB-e7Ggh9aUadNg1hg-5">
          <mxGeometry relative="1" as="geometry">
            <mxPoint x="683" y="850" as="sourcePoint" />
          </mxGeometry>
        </mxCell>
        <mxCell id="v1hB-e7Ggh9aUadNg1hg-29" value="" style="edgeStyle=orthogonalEdgeStyle;rounded=0;orthogonalLoop=1;jettySize=auto;html=1;" edge="1" parent="1" source="v1hB-e7Ggh9aUadNg1hg-4" target="v1hB-e7Ggh9aUadNg1hg-28">
          <mxGeometry relative="1" as="geometry" />
        </mxCell>
        <mxCell id="v1hB-e7Ggh9aUadNg1hg-4" value="TIPO DE BEBIDA?" style="rhombus;whiteSpace=wrap;html=1;" vertex="1" parent="1">
          <mxGeometry x="670" y="800" width="96" height="100" as="geometry" />
        </mxCell>
        <mxCell id="v1hB-e7Ggh9aUadNg1hg-74" value="" style="edgeStyle=orthogonalEdgeStyle;rounded=0;orthogonalLoop=1;jettySize=auto;html=1;fontFamily=Helvetica;fontSize=12;fontColor=default;" edge="1" parent="1" source="v1hB-e7Ggh9aUadNg1hg-5" target="v1hB-e7Ggh9aUadNg1hg-2">
          <mxGeometry relative="1" as="geometry" />
        </mxCell>
        <mxCell id="v1hB-e7Ggh9aUadNg1hg-5" value="EXPENDER BEBIDA DE 5 QUETZALES" style="whiteSpace=wrap;html=1;" vertex="1" parent="1">
          <mxGeometry x="430" y="820" width="120" height="60" as="geometry" />
        </mxCell>
        <mxCell id="v1hB-e7Ggh9aUadNg1hg-7" value="Bebida de 5 quetzales" style="text;html=1;strokeColor=none;fillColor=none;align=center;verticalAlign=middle;whiteSpace=wrap;rounded=0;" vertex="1" parent="1">
          <mxGeometry x="553" y="820" width="140" height="30" as="geometry" />
        </mxCell>
        <mxCell id="v1hB-e7Ggh9aUadNg1hg-11" value="Bebida de 6 quetzales" style="text;html=1;strokeColor=none;fillColor=none;align=center;verticalAlign=middle;whiteSpace=wrap;rounded=0;" vertex="1" parent="1">
          <mxGeometry x="750" y="820" width="140" height="30" as="geometry" />
        </mxCell>
        <mxCell id="v1hB-e7Ggh9aUadNg1hg-13" value="INGRESAR&lt;br&gt;DINERO" style="shape=parallelogram;perimeter=parallelogramPerimeter;whiteSpace=wrap;html=1;fixedSize=1;" vertex="1" parent="1">
          <mxGeometry x="360" y="10" width="120" height="60" as="geometry" />
        </mxCell>
        <mxCell id="v1hB-e7Ggh9aUadNg1hg-17" style="edgeStyle=orthogonalEdgeStyle;rounded=0;orthogonalLoop=1;jettySize=auto;html=1;entryX=0.5;entryY=0;entryDx=0;entryDy=0;" edge="1" parent="1" source="v1hB-e7Ggh9aUadNg1hg-15" target="v1hB-e7Ggh9aUadNg1hg-4">
          <mxGeometry relative="1" as="geometry" />
        </mxCell>
        <mxCell id="v1hB-e7Ggh9aUadNg1hg-20" value="" style="edgeStyle=orthogonalEdgeStyle;rounded=0;orthogonalLoop=1;jettySize=auto;html=1;" edge="1" parent="1" source="v1hB-e7Ggh9aUadNg1hg-15" target="v1hB-e7Ggh9aUadNg1hg-19">
          <mxGeometry relative="1" as="geometry" />
        </mxCell>
        <mxCell id="v1hB-e7Ggh9aUadNg1hg-15" value="BEBIDA?" style="rhombus;whiteSpace=wrap;html=1;" vertex="1" parent="1">
          <mxGeometry x="374" y="700" width="80" height="80" as="geometry" />
        </mxCell>
        <mxCell id="v1hB-e7Ggh9aUadNg1hg-18" value="SI" style="text;html=1;strokeColor=none;fillColor=none;align=center;verticalAlign=middle;whiteSpace=wrap;rounded=0;" vertex="1" parent="1">
          <mxGeometry x="490" y="720" width="60" height="30" as="geometry" />
        </mxCell>
        <mxCell id="v1hB-e7Ggh9aUadNg1hg-25" value="" style="edgeStyle=orthogonalEdgeStyle;rounded=0;orthogonalLoop=1;jettySize=auto;html=1;" edge="1" parent="1" source="v1hB-e7Ggh9aUadNg1hg-19" target="v1hB-e7Ggh9aUadNg1hg-24">
          <mxGeometry relative="1" as="geometry" />
        </mxCell>
        <mxCell id="v1hB-e7Ggh9aUadNg1hg-19" value="GOLOSINA?" style="rhombus;whiteSpace=wrap;html=1;" vertex="1" parent="1">
          <mxGeometry x="130" y="700" width="80" height="80" as="geometry" />
        </mxCell>
        <mxCell id="v1hB-e7Ggh9aUadNg1hg-21" value="NO" style="text;html=1;strokeColor=none;fillColor=none;align=center;verticalAlign=middle;whiteSpace=wrap;rounded=0;" vertex="1" parent="1">
          <mxGeometry x="310" y="720" width="60" height="30" as="geometry" />
        </mxCell>
        <mxCell id="v1hB-e7Ggh9aUadNg1hg-76" value="" style="edgeStyle=orthogonalEdgeStyle;rounded=0;orthogonalLoop=1;jettySize=auto;html=1;fontFamily=Helvetica;fontSize=12;fontColor=default;entryX=-0.025;entryY=0.4;entryDx=0;entryDy=0;entryPerimeter=0;" edge="1" parent="1" source="v1hB-e7Ggh9aUadNg1hg-24" target="v1hB-e7Ggh9aUadNg1hg-2">
          <mxGeometry relative="1" as="geometry">
            <mxPoint x="170" y="990" as="targetPoint" />
            <Array as="points">
              <mxPoint x="170" y="982" />
            </Array>
          </mxGeometry>
        </mxCell>
        <mxCell id="v1hB-e7Ggh9aUadNg1hg-24" value="EXPENDER GOLOSINA" style="whiteSpace=wrap;html=1;" vertex="1" parent="1">
          <mxGeometry x="110" y="820" width="120" height="60" as="geometry" />
        </mxCell>
        <mxCell id="v1hB-e7Ggh9aUadNg1hg-78" value="" style="edgeStyle=orthogonalEdgeStyle;rounded=0;orthogonalLoop=1;jettySize=auto;html=1;fontFamily=Helvetica;fontSize=12;fontColor=default;entryX=1;entryY=0.5;entryDx=0;entryDy=0;" edge="1" parent="1" source="v1hB-e7Ggh9aUadNg1hg-28" target="v1hB-e7Ggh9aUadNg1hg-2">
          <mxGeometry relative="1" as="geometry">
            <mxPoint x="940" y="990" as="targetPoint" />
            <Array as="points">
              <mxPoint x="940" y="990" />
            </Array>
          </mxGeometry>
        </mxCell>
        <mxCell id="v1hB-e7Ggh9aUadNg1hg-28" value="EXPENDER BEBIDA DE 6 QUETZALES" style="whiteSpace=wrap;html=1;" vertex="1" parent="1">
          <mxGeometry x="880" y="820" width="120" height="60" as="geometry" />
        </mxCell>
        <mxCell id="v1hB-e7Ggh9aUadNg1hg-32" value="" style="edgeStyle=orthogonalEdgeStyle;rounded=0;orthogonalLoop=1;jettySize=auto;html=1;" edge="1" parent="1" source="v1hB-e7Ggh9aUadNg1hg-30" target="v1hB-e7Ggh9aUadNg1hg-15">
          <mxGeometry relative="1" as="geometry" />
        </mxCell>
        <mxCell id="v1hB-e7Ggh9aUadNg1hg-34" value="" style="edgeStyle=orthogonalEdgeStyle;rounded=0;orthogonalLoop=1;jettySize=auto;html=1;" edge="1" parent="1" source="v1hB-e7Ggh9aUadNg1hg-30" target="v1hB-e7Ggh9aUadNg1hg-33">
          <mxGeometry relative="1" as="geometry" />
        </mxCell>
        <mxCell id="v1hB-e7Ggh9aUadNg1hg-30" value="&lt;font style=&quot;font-size: 10px;&quot;&gt;ES EL SALDO MAYOR IGUAL O MENOR&lt;br&gt;A LA DEL PRODUCTO CON MENOS PRECIO&lt;/font&gt;" style="rhombus;whiteSpace=wrap;html=1;" vertex="1" parent="1">
          <mxGeometry x="288" y="530" width="252" height="140" as="geometry" />
        </mxCell>
        <mxCell id="v1hB-e7Ggh9aUadNg1hg-33" value="MOSTRAR MENSAJE: &quot;INGRESAR EL MONTO MÍNIMO&quot;" style="whiteSpace=wrap;html=1;" vertex="1" parent="1">
          <mxGeometry x="810" y="420" width="120" height="60" as="geometry" />
        </mxCell>
        <mxCell id="v1hB-e7Ggh9aUadNg1hg-37" value="MENOR" style="text;html=1;strokeColor=none;fillColor=none;align=center;verticalAlign=middle;whiteSpace=wrap;rounded=0;" vertex="1" parent="1">
          <mxGeometry x="670" y="570" width="60" height="30" as="geometry" />
        </mxCell>
        <mxCell id="v1hB-e7Ggh9aUadNg1hg-38" value="" style="endArrow=classic;html=1;rounded=0;entryX=1;entryY=0.5;entryDx=0;entryDy=0;exitX=0.5;exitY=0;exitDx=0;exitDy=0;" edge="1" parent="1" source="v1hB-e7Ggh9aUadNg1hg-33" target="v1hB-e7Ggh9aUadNg1hg-13">
          <mxGeometry width="50" height="50" relative="1" as="geometry">
            <mxPoint x="730" y="180" as="sourcePoint" />
            <mxPoint x="850" y="150" as="targetPoint" />
            <Array as="points">
              <mxPoint x="870" y="40" />
            </Array>
          </mxGeometry>
        </mxCell>
        <mxCell id="v1hB-e7Ggh9aUadNg1hg-41" value="MAYOR O IGUAL" style="text;html=1;strokeColor=none;fillColor=none;align=center;verticalAlign=middle;whiteSpace=wrap;rounded=0;fontSize=12;fontFamily=Helvetica;fontColor=default;" vertex="1" parent="1">
          <mxGeometry x="420" y="670" width="60" height="30" as="geometry" />
        </mxCell>
        <mxCell id="v1hB-e7Ggh9aUadNg1hg-45" value="" style="edgeStyle=orthogonalEdgeStyle;rounded=0;orthogonalLoop=1;jettySize=auto;html=1;fontFamily=Helvetica;fontSize=12;fontColor=default;entryX=0;entryY=0.5;entryDx=0;entryDy=0;" edge="1" parent="1" source="v1hB-e7Ggh9aUadNg1hg-43" target="v1hB-e7Ggh9aUadNg1hg-56">
          <mxGeometry relative="1" as="geometry">
            <mxPoint x="583" y="230" as="targetPoint" />
          </mxGeometry>
        </mxCell>
        <mxCell id="v1hB-e7Ggh9aUadNg1hg-80" value="" style="edgeStyle=orthogonalEdgeStyle;rounded=0;orthogonalLoop=1;jettySize=auto;html=1;fontFamily=Helvetica;fontSize=12;fontColor=default;entryX=0.5;entryY=0;entryDx=0;entryDy=0;" edge="1" parent="1" source="v1hB-e7Ggh9aUadNg1hg-43" target="v1hB-e7Ggh9aUadNg1hg-3">
          <mxGeometry relative="1" as="geometry">
            <mxPoint x="414" y="390" as="targetPoint" />
          </mxGeometry>
        </mxCell>
        <mxCell id="v1hB-e7Ggh9aUadNg1hg-43" value="MONEDAS O&amp;nbsp;&lt;br&gt;BILLETES?" style="rhombus;whiteSpace=wrap;html=1;strokeColor=default;align=center;verticalAlign=middle;fontFamily=Helvetica;fontSize=12;fontColor=default;fillColor=default;" vertex="1" parent="1">
          <mxGeometry x="351" y="190" width="126" height="80" as="geometry" />
        </mxCell>
        <mxCell id="v1hB-e7Ggh9aUadNg1hg-46" value="MONEDAS" style="text;html=1;strokeColor=none;fillColor=none;align=center;verticalAlign=middle;whiteSpace=wrap;rounded=0;fontSize=12;fontFamily=Helvetica;fontColor=default;" vertex="1" parent="1">
          <mxGeometry x="480" y="210" width="60" height="30" as="geometry" />
        </mxCell>
        <mxCell id="v1hB-e7Ggh9aUadNg1hg-49" value="BILLETES" style="text;html=1;strokeColor=none;fillColor=none;align=center;verticalAlign=middle;whiteSpace=wrap;rounded=0;fontSize=12;fontFamily=Helvetica;fontColor=default;" vertex="1" parent="1">
          <mxGeometry x="200" y="180" width="60" height="30" as="geometry" />
        </mxCell>
        <mxCell id="v1hB-e7Ggh9aUadNg1hg-53" value="SON BILLETES VALIDOS&lt;br&gt;&amp;nbsp;PARA LA MÁQUINA?" style="rhombus;whiteSpace=wrap;html=1;strokeColor=default;align=center;verticalAlign=middle;fontFamily=Helvetica;fontSize=12;fontColor=default;fillColor=default;" vertex="1" parent="1">
          <mxGeometry x="30" y="260" width="220" height="80" as="geometry" />
        </mxCell>
        <mxCell id="v1hB-e7Ggh9aUadNg1hg-69" value="" style="edgeStyle=orthogonalEdgeStyle;rounded=0;orthogonalLoop=1;jettySize=auto;html=1;fontFamily=Helvetica;fontSize=12;fontColor=default;" edge="1" parent="1" source="v1hB-e7Ggh9aUadNg1hg-56" target="v1hB-e7Ggh9aUadNg1hg-68">
          <mxGeometry relative="1" as="geometry" />
        </mxCell>
        <mxCell id="v1hB-e7Ggh9aUadNg1hg-82" value="" style="edgeStyle=orthogonalEdgeStyle;rounded=0;orthogonalLoop=1;jettySize=auto;html=1;fontFamily=Helvetica;fontSize=12;fontColor=default;entryX=1;entryY=0.5;entryDx=0;entryDy=0;" edge="1" parent="1" source="v1hB-e7Ggh9aUadNg1hg-56" target="v1hB-e7Ggh9aUadNg1hg-3">
          <mxGeometry relative="1" as="geometry">
            <mxPoint x="690" y="390" as="targetPoint" />
            <Array as="points">
              <mxPoint x="690" y="460" />
            </Array>
          </mxGeometry>
        </mxCell>
        <mxCell id="v1hB-e7Ggh9aUadNg1hg-56" value="SON MONEDAS VALIDAS&lt;br&gt;&amp;nbsp;PARA LA MÁQUINA?" style="rhombus;whiteSpace=wrap;html=1;strokeColor=default;align=center;verticalAlign=middle;fontFamily=Helvetica;fontSize=12;fontColor=default;fillColor=default;" vertex="1" parent="1">
          <mxGeometry x="580" y="190" width="220" height="80" as="geometry" />
        </mxCell>
        <mxCell id="v1hB-e7Ggh9aUadNg1hg-57" value="" style="endArrow=classic;html=1;rounded=0;fontFamily=Helvetica;fontSize=12;fontColor=default;entryX=0;entryY=0.5;entryDx=0;entryDy=0;exitX=0.5;exitY=1;exitDx=0;exitDy=0;" edge="1" parent="1" source="v1hB-e7Ggh9aUadNg1hg-53" target="v1hB-e7Ggh9aUadNg1hg-3">
          <mxGeometry width="50" height="50" relative="1" as="geometry">
            <mxPoint x="140" y="300" as="sourcePoint" />
            <mxPoint x="190" y="220" as="targetPoint" />
            <Array as="points">
              <mxPoint x="140" y="460" />
            </Array>
          </mxGeometry>
        </mxCell>
        <mxCell id="v1hB-e7Ggh9aUadNg1hg-58" value="" style="endArrow=classic;html=1;rounded=0;fontFamily=Helvetica;fontSize=12;fontColor=default;entryX=0.5;entryY=0;entryDx=0;entryDy=0;exitX=0;exitY=0.5;exitDx=0;exitDy=0;" edge="1" parent="1" source="v1hB-e7Ggh9aUadNg1hg-43" target="v1hB-e7Ggh9aUadNg1hg-53">
          <mxGeometry width="50" height="50" relative="1" as="geometry">
            <mxPoint x="350" y="230" as="sourcePoint" />
            <mxPoint x="400" y="180" as="targetPoint" />
            <Array as="points">
              <mxPoint x="140" y="230" />
            </Array>
          </mxGeometry>
        </mxCell>
        <mxCell id="v1hB-e7Ggh9aUadNg1hg-63" value="NO" style="text;html=1;strokeColor=none;fillColor=none;align=center;verticalAlign=middle;whiteSpace=wrap;rounded=0;fontSize=12;fontFamily=Helvetica;fontColor=default;" vertex="1" parent="1">
          <mxGeometry x="-30" y="270" width="60" height="30" as="geometry" />
        </mxCell>
        <mxCell id="v1hB-e7Ggh9aUadNg1hg-65" value="DEVOLVER DINERO" style="rounded=0;whiteSpace=wrap;html=1;strokeColor=default;align=center;verticalAlign=middle;fontFamily=Helvetica;fontSize=12;fontColor=default;fillColor=default;" vertex="1" parent="1">
          <mxGeometry x="-150" y="270" width="120" height="60" as="geometry" />
        </mxCell>
        <mxCell id="v1hB-e7Ggh9aUadNg1hg-67" value="" style="endArrow=classic;html=1;rounded=0;fontFamily=Helvetica;fontSize=12;fontColor=default;exitX=0.5;exitY=0;exitDx=0;exitDy=0;entryX=0;entryY=0.5;entryDx=0;entryDy=0;" edge="1" parent="1" source="v1hB-e7Ggh9aUadNg1hg-65" target="v1hB-e7Ggh9aUadNg1hg-13">
          <mxGeometry width="50" height="50" relative="1" as="geometry">
            <mxPoint x="610" y="310" as="sourcePoint" />
            <mxPoint x="340" y="50" as="targetPoint" />
            <Array as="points">
              <mxPoint x="-90" y="40" />
            </Array>
          </mxGeometry>
        </mxCell>
        <mxCell id="v1hB-e7Ggh9aUadNg1hg-68" value="DEVOLVER DINERO" style="whiteSpace=wrap;html=1;" vertex="1" parent="1">
          <mxGeometry x="630" y="90" width="120" height="60" as="geometry" />
        </mxCell>
        <mxCell id="v1hB-e7Ggh9aUadNg1hg-70" value="NO" style="text;html=1;strokeColor=none;fillColor=none;align=center;verticalAlign=middle;whiteSpace=wrap;rounded=0;fontSize=12;fontFamily=Helvetica;fontColor=default;" vertex="1" parent="1">
          <mxGeometry x="633" y="160" width="60" height="30" as="geometry" />
        </mxCell>
        <mxCell id="v1hB-e7Ggh9aUadNg1hg-71" value="" style="endArrow=classic;html=1;rounded=0;fontFamily=Helvetica;fontSize=12;fontColor=default;exitX=0.5;exitY=0;exitDx=0;exitDy=0;entryX=1;entryY=0.5;entryDx=0;entryDy=0;" edge="1" parent="1" source="v1hB-e7Ggh9aUadNg1hg-68" target="v1hB-e7Ggh9aUadNg1hg-13">
          <mxGeometry width="50" height="50" relative="1" as="geometry">
            <mxPoint x="640" y="90" as="sourcePoint" />
            <mxPoint x="690" y="40" as="targetPoint" />
            <Array as="points">
              <mxPoint x="690" y="40" />
            </Array>
          </mxGeometry>
        </mxCell>
        <mxCell id="v1hB-e7Ggh9aUadNg1hg-72" value="" style="endArrow=classic;html=1;rounded=0;fontFamily=Helvetica;fontSize=12;fontColor=default;exitX=0.442;exitY=0.983;exitDx=0;exitDy=0;exitPerimeter=0;entryX=0.5;entryY=0;entryDx=0;entryDy=0;" edge="1" parent="1" source="v1hB-e7Ggh9aUadNg1hg-13" target="v1hB-e7Ggh9aUadNg1hg-43">
          <mxGeometry width="50" height="50" relative="1" as="geometry">
            <mxPoint x="320" y="150" as="sourcePoint" />
            <mxPoint x="370" y="100" as="targetPoint" />
          </mxGeometry>
        </mxCell>
        <mxCell id="v1hB-e7Ggh9aUadNg1hg-73" value="" style="endArrow=classic;html=1;rounded=0;fontFamily=Helvetica;fontSize=12;fontColor=default;entryX=1;entryY=0.5;entryDx=0;entryDy=0;" edge="1" parent="1" target="v1hB-e7Ggh9aUadNg1hg-65">
          <mxGeometry width="50" height="50" relative="1" as="geometry">
            <mxPoint x="30" y="300" as="sourcePoint" />
            <mxPoint x="80" y="250" as="targetPoint" />
          </mxGeometry>
        </mxCell>
        <mxCell id="v1hB-e7Ggh9aUadNg1hg-83" value="SI" style="text;html=1;strokeColor=none;fillColor=none;align=center;verticalAlign=middle;whiteSpace=wrap;rounded=0;fontSize=12;fontFamily=Helvetica;fontColor=default;" vertex="1" parent="1">
          <mxGeometry x="600" y="430" width="60" height="30" as="geometry" />
        </mxCell>
        <mxCell id="v1hB-e7Ggh9aUadNg1hg-85" value="SI" style="text;html=1;strokeColor=none;fillColor=none;align=center;verticalAlign=middle;whiteSpace=wrap;rounded=0;fontSize=12;fontFamily=Helvetica;fontColor=default;" vertex="1" parent="1">
          <mxGeometry x="210" y="440" width="60" height="30" as="geometry" />
        </mxCell>
        <mxCell id="v1hB-e7Ggh9aUadNg1hg-86" value="SI" style="text;html=1;strokeColor=none;fillColor=none;align=center;verticalAlign=middle;whiteSpace=wrap;rounded=0;fontSize=12;fontFamily=Helvetica;fontColor=default;" vertex="1" parent="1">
          <mxGeometry x="110" y="780" width="60" height="30" as="geometry" />
        </mxCell>
        <mxCell id="v1hB-e7Ggh9aUadNg1hg-88" value="" style="endArrow=classic;html=1;rounded=0;fontFamily=Helvetica;fontSize=12;fontColor=default;exitX=0.5;exitY=0;exitDx=0;exitDy=0;entryX=0.5;entryY=0;entryDx=0;entryDy=0;" edge="1" parent="1" source="v1hB-e7Ggh9aUadNg1hg-19" target="v1hB-e7Ggh9aUadNg1hg-15">
          <mxGeometry width="50" height="50" relative="1" as="geometry">
            <mxPoint x="170" y="700" as="sourcePoint" />
            <mxPoint x="220" y="650" as="targetPoint" />
          </mxGeometry>
        </mxCell>
        <mxCell id="v1hB-e7Ggh9aUadNg1hg-89" value="NO" style="text;html=1;strokeColor=none;fillColor=none;align=center;verticalAlign=middle;whiteSpace=wrap;rounded=0;fontSize=12;fontFamily=Helvetica;fontColor=default;" vertex="1" parent="1">
          <mxGeometry x="200" y="680" width="60" height="30" as="geometry" />
        </mxCell>
      </root>
    </mxGraphModel>
  </diagram>
</mxfile>
